<?xml version="1.0" standalone="no"?>
<!DOCTYPE svg PUBLIC "-//W3C//DTD SVG 20010904//EN"
 "http://www.w3.org/TR/2001/REC-SVG-20010904/DTD/svg10.dtd">
<svg version="1.0" xmlns="http://www.w3.org/2000/svg"
 width="260.000000pt" height="260.000000pt" viewBox="0 0 260.000000 260.000000"
 preserveAspectRatio="xMidYMid meet">
<metadata>
Created by potrace 1.11, written by Peter Selinger 2001-2013
</metadata>
<g transform="translate(0.000000,260.000000) scale(0.100000,-0.100000)"
fill="#000000" stroke="none">
<path d="M1101 2534 c-175 -29 -377 -117 -521 -225 -146 -110 -293 -285 -373
-444 -37 -73 -82 -208 -103 -305 -25 -118 -25 -362 0 -480 56 -261 171 -467
362 -650 103 -100 177 -152 301 -214 172 -86 345 -126 543 -126 351 0 656 130
898 383 162 171 265 368 318 612 26 122 24 360 -5 490 -112 501 -501 873
-1005 960 -108 18 -301 18 -415 -1z m327 -84 c517 -55 924 -438 1008 -950 23
-135 14 -332 -20 -465 -33 -125 -116 -297 -195 -402 -327 -434 -917 -574
-1408 -333 -301 148 -517 414 -604 746 -27 103 -37 333 -19 441 72 453 393
814 824 929 150 39 269 49 414 34z"/>
</g>
</svg>
