<svg version="1" xmlns="http://www.w3.org/2000/svg" width="682.667" height="682.667" viewBox="0 0 512.000000 512.000000"><path d="M80.5 1.2C44.7 7.8 16.7 31.8 4.8 66-.1 80.4 0 76.1.3 259.5c.1 94 .5 171.9.9 173 .3 1.1 1.3 4.8 2.2 8.3 8 30.5 32.1 56.1 62.1 66 14.7 4.9 6.2 4.7 189.5 4.7 94.9 0 174.1-.3 176-.6 13.3-2.4 26.1-7.4 37.4-14.6 7.9-5.1 21.5-18.2 26.5-25.6 7.6-11.1 14.4-28.4 15.9-40.1.4-2.8.7-82.5.7-177.1v-172l-2.2-8.3c-4.8-17.6-14.1-33.8-26.1-45.3-11.4-11-19.9-16.4-34.2-21.8-17-6.3-6.9-6-193.5-5.9-100 0-172.1.4-175 1zm347 39.2c18.2 4.3 33.5 17 40.8 34.1 4.3 10 4.3 8.5 4.1 183.3-.1 91.7-.4 168-.8 169.7-5.1 21.9-22.2 38.8-44.3 44.1-1.5.4-77.7.8-169.3.9-134.5.1-167.8-.1-173-1.2-8.6-1.7-21.4-8.2-27-13.6-9.6-9.2-13.9-16.8-17.7-31.1-.3-1.2-.7-77.4-.8-169.4-.1-155.9 0-167.8 1.6-174.2 3.1-12.2 8.1-20.7 17.2-29.1 6.8-6.3 19.4-12.3 28.2-13.6 2.2-.3 4.1-.6 4.2-.7.7-.6 334.3.2 336.8.8z"/></svg>